HIERARCHY
ROOT Hips
{
	OFFSET 0.00000 0.00000 0.00000
	CHANNELS 6 Xposition Yposition Zposition Yrotation Zrotation Xrotation 
	JOINT Lumbar
	{
		OFFSET 0 0 0
		CHANNELS 3 Zrotation Xrotation Yrotation
		JOINT Neck
		{
			OFFSET 0.00 0.2701 0.00
			CHANNELS 3 Zrotation Xrotation Yrotation
			End Site
			{
				OFFSET 0.00 0.1379 0.00
			}
		}
		JOINT RightShoulder
		{
			OFFSET 0.0119 0.2289 0.1181
			CHANNELS 3 Zrotation Xrotation Yrotation
			JOINT RightElbow
			{
				OFFSET 0.00 -0.1475 0.00
				CHANNELS 2 Zrotation Yrotation
				JOINT RightWrist
				{
					OFFSET 0.00 -0.1605 0.00
					CHANNELS 2 Zrotation Xrotation
					End Site
					{
						OFFSET 0.0040 -0.1068 0.0006
					}
				}
			}
		}
		JOINT LeftShoulder
		{
			OFFSET 0.0119 0.2289 -0.1181
			CHANNELS 3 Zrotation Xrotation Yrotation
			JOINT LeftElbow
			{
				OFFSET 0.00 -0.1475 0.00
				CHANNELS 2 Zrotation Yrotation
				JOINT LeftWrist
				{
					OFFSET 0.00 -0.1605 0.00
					CHANNELS 2 Zrotation Xrotation
					End Site
					{
						OFFSET 0.0040 -0.1068 -0.0006
					}
				}
			}
		}
	}
	JOINT RightHip
	{
		OFFSET 0.0316 -0.0424 0.0458
		CHANNELS 3 Zrotation Xrotation Yrotation
		JOINT RightKnee
		{
			OFFSET 0.00 -0.2438 0.00
			CHANNELS 1 Zrotation
			JOINT RightAnkle
			{
				OFFSET 0.00 -0.2449 0.00
				CHANNELS 3 Zrotation Xrotation Yrotation
				End Site
				{
					OFFSET 0.1237 -0.0542 0.0051
				}
			}
		}
	}
	JOINT LeftHip
	{
		OFFSET 0.0316 -0.0424 -0.0458
		CHANNELS 3 Zrotation Xrotation Yrotation
		JOINT LeftKnee
		{
			OFFSET 0.00 -0.2438 0.00
			CHANNELS 1 Zrotation
			JOINT LeftAnkle
			{
				OFFSET 0.00 -0.2449 0.00
				CHANNELS 3 Zrotation Xrotation Yrotation
				End Site
				{
					OFFSET 0.1237 -0.0542 -0.0051
				}
			}
		}
	}
}
MOTION
Frames: 14
Frame Time: 0.02
-0 0.57926 0 176.7579 0 -3.39885 4.1399 5.0921 -1.05658 -24.92873 6.62744 5.53594 -12.36287 -76.6105 -90.01165 21.45255 65.61995 -42.70271 -2.17247 21.62355 65.60751 68.32067 21.42281 -86.74359 -29.86026 4.30239 -3.55187 4.87799 -7.93201 -8.6992 1.4798 -5.21385 -11.52325 -2.56851 4.10041 1.39081 -7.88501 6.13373 6.30105 9.56123
0.00029 0.57926 -8e-05 176.76038 0 -3.41122 4.14104 5.09157 -1.02558 -25.05117 6.62728 5.54363 -12.07035 -76.61188 -90.01166 21.47583 65.53226 -42.48539 -2.16949 22.00224 65.5887 68.1271 21.37306 -86.6823 -29.85973 4.29788 -3.52753 4.89706 -7.94948 -8.6954 1.47139 -5.20418 -11.503 -2.58577 4.12325 1.36874 -7.79895 6.1099 6.30487 9.56251
0.00058 0.57925 -0.00015 176.76273 0 -3.42353 4.14227 5.09103 -0.9945 -25.17348 6.62639 5.55091 -11.77662 -76.61234 -90.01166 21.4996 65.44358 -42.26654 -2.16625 22.38025 65.57058 67.93269 21.32417 -86.62039 -29.85901 4.29331 -3.50321 4.91605 -7.96677 -8.69148 1.463 -5.19463 -11.48284 -2.60288 4.14597 1.34677 -7.7131 6.0861 6.30862 9.56384
0.00088 0.57924 -0.00023 176.76489 0 -3.43572 4.14358 5.0904 -0.9637 -25.29522 6.6241 5.55732 -11.47529 -76.61114 -90.01167 21.52566 65.35329 -42.04358 -2.16282 22.75564 65.55364 67.73609 21.27873 -86.55474 -29.85781 4.28839 -3.47876 4.93486 -7.98349 -8.68719 1.45463 -5.18547 -11.46314 -2.61983 4.16845 1.32488 -7.62706 6.0622 6.3121 9.5653
0.00115 0.57924 -0.00031 176.76841 0 -3.44853 4.14414 5.09017 -0.93245 -25.41848 6.63109 5.56915 -11.2145 -76.62115 -90.01166 21.53968 65.27532 -41.8474 -2.16146 23.1406 65.52881 67.55476 21.21558 -86.50814 -29.85948 4.28528 -3.45507 4.95458 -8.00318 -8.68504 1.44617 -5.1743 -11.44135 -2.63794 4.19223 1.30241 -7.54178 6.03884 6.31696 9.56597
0.00147 0.57923 -0.00037 176.76879 0 -3.46004 4.14652 5.08914 -0.90148 -25.53941 6.6172 5.56894 -10.86801 -76.60581 -90.01166 21.57911 65.16882 -41.59139 -2.15499 23.50788 65.52177 67.33881 21.18959 -86.42182 -29.85485 4.27836 -3.42973 4.97235 -8.01658 -8.67822 1.43789 -5.16735 -11.42376 -2.6534 4.21323 1.28131 -7.45514 6.01438 6.31894 9.56839
0.0019 0.57921 -0.0004 176.7624 0 -3.46803 4.15224 5.08556 -0.87643 -25.64897 6.55323 5.53888 -10.26467 -76.53078 -90.01169 21.69306 65.00134 -41.18499 -2.14034 23.80968 65.55618 67.03897 21.27245 -86.21442 -29.834 4.26004 -3.39954 4.98518 -8.01207 -8.65916 1.43003 -5.17263 -11.41979 -2.66317 4.22694 1.26249 -7.36066 5.98586 6.31225 9.57519
0.00236 0.57919 -0.00041 176.75248 0 -3.4747 4.16013 5.08125 -0.8507 -25.75743 6.46662 5.49588 -9.57562 -76.42788 -90.01161 21.83213 64.80322 -40.71479 -2.11968 24.09681 65.60991 66.70186 21.39179 -85.96844 -29.80656 4.23797 -3.36771 4.99598 -8.00126 -8.63525 1.42235 -5.18207 -11.41972 -2.66997 4.2378 1.24532 -7.26543 5.9564 6.30275 9.58382
0.00281 0.57917 -0.00042 176.74289 0 -3.48195 4.16811 5.0775 -0.82187 -25.86942 6.38545 5.45668 -8.94098 -76.33133 -90.01173 21.9568 64.60525 -40.26391 -2.09755 24.40212 65.65991 66.37357 21.49046 -85.74776 -29.78133 4.21816 -3.33677 5.00744 -7.99368 -8.61313 1.41461 -5.18926 -11.41647 -2.67707 4.24974 1.22833 -7.17306 5.92801 6.29497 9.59194
0.00326 0.57916 -0.00044 176.73865 0 -3.48929 4.17151 5.07273 -0.80733 -25.96765 6.32508 5.42677 -8.25034 -76.26272 -90.01169 22.0934 64.45877 -39.85488 -2.0921 24.65963 65.6889 66.07889 21.60632 -85.49582 -29.75937 4.19611 -3.30521 5.01999 -7.98465 -8.59274 1.40676 -5.19798 -11.41897 -2.68863 4.26261 1.20732 -7.07006 5.89687 6.28534 9.59877
0.00371 0.57914 -0.00044 176.72247 0 -3.49611 4.185 5.06996 -0.763 -26.09547 6.2156 5.37383 -7.64446 -76.12771 -90.01135 22.21195 64.20614 -39.34233 -2.05179 25.01214 65.76586 65.7062 21.69513 -85.29796 -29.7291 4.17773 -3.27456 5.02978 -7.977 -8.56759 1.39919 -5.20448 -11.41066 -2.69015 4.27285 1.19517 -6.98906 5.8713 6.27888 9.60861
0.00415 0.57912 -0.00041 176.67357 0 -3.50191 4.22533 5.07258 -0.63559 -26.2949 5.97948 5.26584 -7.39304 -75.82844 -90.01241 22.26746 63.59762 -38.5699 -1.9058 25.63922 65.97206 65.11884 21.70008 -85.27525 -29.67784 4.17128 -3.24668 5.03245 -7.97601 -8.53081 1.39261 -5.20387 -11.36956 -2.66502 4.27668 1.20647 -6.96873 5.86087 6.28211 9.62741
0.00458 0.57911 -0.00037 176.61282 0 -3.50722 4.27571 5.07729 -0.47854 -26.52594 5.69408 5.13426 -7.21217 -75.46016 -90.0107 22.30526 62.89759 -37.69387 -1.72716 26.36011 66.22437 64.45521 21.67692 -85.30562 -29.619 4.1685 -3.21971 5.03241 -7.97634 -8.48946 1.38632 -5.20088 -11.31785 -2.62977 4.27795 1.22678 -6.9707 5.85622 6.28861 9.64901
0.00502 0.57909 -0.00033 176.55793 0 -3.51271 4.32196 5.08123 -0.33557 -26.74953 5.42896 5.00981 -6.93263 -75.11646 -90.01142 22.35576 62.28414 -36.85805 -1.5704 27.03332 66.45616 63.83274 21.66636 -85.30042 -29.56263 4.16344 -3.19254 5.03363 -7.9753 -8.44983 1.37968 -5.19893 -11.27227 -2.59902 4.28031 1.24333 -6.96249 5.84917 6.29342 9.66859
